<?xml version="1.0" encoding="UTF-8" standalone="no" ?>
<!DOCTYPE svg PUBLIC "-//W3C//DTD SVG 1.1//EN" "http://www.w3.org/Graphics/SVG/1.1/DTD/svg11.dtd">
<svg xmlns="http://www.w3.org/2000/svg" xmlns:xlink="http://www.w3.org/1999/xlink" version="1.1" width="1280" height="1024" viewBox="0 0 1280 1024" xml:space="preserve">
<desc>Created with Fabric.js 5.3.0</desc>
<defs>
</defs>
<g transform="matrix(1 0 0 1 640 512)" id="background-logo"  >
<rect style="stroke: none; stroke-width: 0; stroke-dasharray: none; stroke-linecap: butt; stroke-dashoffset: 0; stroke-linejoin: miter; stroke-miterlimit: 4; fill: rgb(255,255,255); fill-opacity: 0; fill-rule: nonzero; opacity: 1;"  paint-order="stroke"  x="-640" y="-512" rx="0" ry="0" width="1280" height="1024" />
</g>
<g transform="matrix(1.9211538461538462 0 0 1.9211538461538462 640 405.8624927244759)" id="logo-logo"  >
<g style=""  paint-order="stroke"   >
		<g transform="matrix(2.1317127002865335 0 0 2.1317127002865335 0 2.842171e-14)"  >
<path style="stroke: none; stroke-width: 1; stroke-dasharray: none; stroke-linecap: butt; stroke-dashoffset: 0; stroke-linejoin: miter; stroke-miterlimit: 4; fill: rgb(139,83,255); fill-rule: nonzero; opacity: 1;"  paint-order="stroke"  transform=" translate(-297.41113295, -421.6377815450483)" d="M 291.7036133 388.0581055 C 288.11962889999995 389.01855470000004 285.25683599999996 391.35302740000003 283.5317383 394.3408203 C 283.50341799999995 394.390625 283.4750977 394.44042970000004 283.4472656 394.4902344 C 281.4560547 393.5214844 279.6123047 393.7246094 278.4409179 394.050293 C 278.73828119999996 393.34667970000004 279.0786132 392.6621094 279.4599609 392.0009766 C 281.7944336 387.9580078 285.6582031 384.8012696 290.4877929 383.5073243 C 295.3149413 382.2138673 300.2363281 383.0141602 304.2734374 385.3452149 C 308.31640619999996 387.67968759999997 311.47265619999996 391.54345709999996 312.76757799999996 396.37304689999996 L 313.53515609999994 399.2373047 C 312.33984359999994 399.9047852 311.74218729999996 400.871582 311.74218729999996 400.871582 C 309.300781 393.74072259999997 306.15820289999994 391.6865234 304.26757789999994 391.1196289 C 303.5507809999999 390.4697266 302.76757789999994 389.89892580000003 301.9335934999999 389.4169922 C 298.9414063 387.6889648 295.2895508 387.097168 291.7036133 388.0581055 L 291.7036133 388.0581055 z M 329.3710938 408.6508789 C 327.2460938 409.22070310000004 325.984375 411.40625 326.55273439999996 413.5322266 C 325.98437499999994 411.40625 323.7988281 410.1445313 321.67187499999994 410.7143555 C 323.7988280999999 410.1445313 325.06054689999996 407.9589844 324.49023439999996 405.8325196 C 325.0605469 407.9589844 327.2460938 409.2207031 329.3710938 408.6508789 L 329.3710938 408.6508789 z M 273.6806641 402.815918 C 270.1791993 403.7539063 268.1010743 407.3535157 269.0390625 410.8549805 C 268.1010742 407.3535157 264.5019531 405.2753907 261 406.2133789 C 264.5019531 405.27539060000004 266.5795898 401.6762695 265.6416016 398.1748047 C 266.5795898 401.6762695 270.1791992 403.7539063 273.6806641 402.815918 L 273.6806641 402.815918 z M 263.3276367 417.8183594 C 263.37939450000005 417.81640630000004 278.77539060000004 417.394043 278.487793 412.0771485 C 278.4282227 410.97900400000003 278.32324220000004 409.51171880000004 278.2197266 408.065918 C 277.8339844 402.68798830000003 277.46923830000003 397.60205080000003 279.5454102 396.269043 C 281.1723633 395.2236328 282.8632813 395.78417970000004 284.6586915 398.5791016 C 286.2065431 400.9887696 287.604004 405.04736330000003 289.0346681 409.2041016 C 289.13134779999996 409.48486330000003 294.166504 426.1762696 292.9052736 419.3388672 C 292.6708986 418.0688477 292.2436525 416.51904299999995 291.8081056 414.9404297 L 291.8168947 414.9379883 C 290.44726579999997 409.9726563 289.0122072 404.76660159999994 292.1186525 402.46777349999996 C 294.6293947 400.60937509999997 296.68945329999997 401.7773438 298.5234377 404.25537119999996 C 299.43359399999997 405.48583999999994 300.29296899999997 407.13330089999994 301.1328127 408.74609389999995 C 301.3808596 409.22167979999995 301.62695329999997 409.69335949999993 301.8730471 410.14990249999994 C 301.6445315 408.98730479999995 301.3613283 407.56396499999994 301.074219 406.13037119999996 C 300.0371096 400.95068369999996 298.98437520000004 395.6845704 302.1796878 393.9111329 C 304.45898470000003 392.64746099999996 306.3222659 394.1142579 307.9531253 397.05468759999997 C 309.1679691 399.2436524 310.4238284 402.4555665 311.6640628 405.62792979999995 C 312.34960970000003 407.38330089999994 313.0312503 409.12548839999994 313.6718753 410.61376959999996 L 313.5722659 409.85107429999994 C 309.7402346 394.24853519999994 324.29296899999997 400.37353519999994 333.8222659 404.1054687999999 C 327.7968753 403.10107429999994 317.0488284 400.16259769999994 318.2402346 409.2402343999999 C 318.7128909 412.83349609999993 319.1816409 416.4145507999999 316.5371096 418.25537109999993 C 314.6484377 419.57031249999994 313.011719 418.81933589999994 311.5390627 416.7026366999999 C 310.1757814 414.7441405999999 308.73632829999997 411.0629882999999 307.2773439 407.3286132999999 C 306.5117189 405.3686523999999 305.7402345 403.3935546999999 305.0019533 401.7255859999999 C 305.2089846 402.7983398999999 305.4511721 404.0058593999999 305.6914064 405.2060547999999 C 306.6933595 410.2216797999999 307.6816408 415.1567383999999 304.7246095 416.8789063999999 C 302.0507814 418.4365235999999 300.11718759999997 416.5185547999999 298.36718759999997 413.5117188999999 C 297.91259779999996 412.7319336999999 297.44042979999995 411.8266602999999 296.963379 410.9101563999999 C 296.24316419999997 409.5292969999999 295.5083009 408.1201172999999 294.7885743 407.1259766999999 C 294.9038087 408.47460949999993 295.6376954 411.1342774999999 296.3457032 413.7016602999999 L 296.3544923 413.7016602999999 C 296.81494150000003 415.3710938999999 297.2666017 417.0092774999999 297.5395509 418.4887696999999 C 298.2050782 422.0942384999999 297.7954103 424.8110352999999 294.6201173 425.3969727999999 C 289.9218751 426.2631836999999 287.19775400000003 418.3515625999999 284.5766603 410.7382813999999 C 283.9404298 408.8896485999999 283.3110353 407.0615235999999 282.6972658 405.4487305999999 C 282.78564470000003 406.1728516999999 282.8652346 406.94042979999995 282.92187520000004 407.73242199999993 C 283.01318380000004 409.00732429999994 283.10595720000003 410.30371109999993 283.18896500000005 411.83544929999994 C 283.5112305 417.7939453 275.0366211 421.3867188 263.3276367 417.8183594 L 263.3276367 417.8183594 z M 294.9130859 406.2583008 C 294.8300781 406.3203125 294.7861328 406.46777349999996 294.7753906 406.6850586 C 294.9116211 406.3837891 295.1699219 406.0683594 294.9130859 406.2583008 L 294.9130859 406.2583008 z M 284.8823242 414.6831055 L 289.0761719 430.3344727 C 290.03515630000004 433.9135743 292.3735352 436.7768555 295.3681641 438.5063477 L 295.3657227 438.510254 C 296.8544922 439.3676759 298.5058594 439.9458009 300.2304688 440.1909181 L 300.2304688 432.61474619999996 C 298.8925782 431.81201179999994 297.99658209999996 430.34814459999996 297.99658209999996 428.6743165 C 297.99658209999996 426.13818369999996 300.05273439999996 424.08251959999996 302.58789069999995 424.08251959999996 C 305.12500009999997 424.08251959999996 307.17968759999997 426.13818369999996 307.17968759999997 428.6743165 C 307.17968759999997 430.34814459999996 306.2851563 431.8120118 304.94726569999995 432.61474619999996 L 304.94726569999995 437.510254 L 304.94726569999995 440.02001959999996 L 304.94726569999995 444.81103519999994 L 304.94726569999995 446.94482429999994 L 304.94726569999995 447.8940430999999 L 302.70117189999996 448.8793946999999 L 311.6914063 448.8793946999999 C 312.9941407 448.8793946999999 314.0507813 449.9360352999999 314.0507813 451.2377930999999 C 314.0507813 452.54052749999994 312.9941407 453.5961914999999 311.6914063 453.5961914999999 L 304.9472657 453.5961914999999 L 304.9472657 454.8325195999999 L 301.6015626 455.6684570999999 L 317.76367200000004 455.6684570999999 C 319.06640640000006 455.6684570999999 320.12109390000006 456.7241211999999 320.12109390000006 458.0268554999999 C 320.12109390000006 459.3286132999999 319.06640640000006 460.3852538999999 317.76367200000004 460.3852538999999 L 287.41357430000005 460.3852538999999 C 286.11083990000003 460.3852538999999 285.0546876 459.3286132999999 285.0546876 458.0268554999999 C 285.0546876 456.7241210999999 286.11083990000003 455.6684570999999 287.41357430000005 455.6684570999999 L 300.23046880000004 455.6684570999999 L 300.23046880000004 453.5961914999999 L 293.48486330000003 453.5961914999999 C 292.1821289 453.5961914999999 291.12646490000003 452.5405273999999 291.12646490000003 451.2377930999999 C 291.12646490000003 449.9360352999999 292.18212900000003 448.8793946999999 293.48486330000003 448.8793946999999 L 300.23046880000004 448.8793946999999 L 300.23046880000004 444.93212909999994 C 297.67041020000005 444.65966819999994 295.21435550000007 443.84521499999994 293.01904300000007 442.57763689999996 L 293.00976570000006 442.57763689999996 C 288.97363290000004 440.2475588 285.8203126000001 436.38427749999994 284.52539070000006 431.5502931 L 281.24169930000005 419.294922 C 283.7495117 417.4838867 284.6347656 415.8676758 284.8823242 414.6831055 L 284.8823242 414.6831055 z M 318.796875 418.8720703 L 319.6699219 422.1362305 C 320.96484380000004 426.9633789 320.1640625 431.88427740000003 317.83203130000004 435.92236330000003 L 317.83203130000004 435.93115240000003 C 315.50195320000006 439.96728520000005 311.6386719 443.1206055 306.80468750000006 444.41552740000003 C 306.4882812000001 444.50048830000003 306.1699219000001 444.57666020000005 305.85156250000006 444.644043 L 305.85156250000006 439.7915039 C 309.30859380000004 438.78955080000003 312.07421880000004 436.4936523 313.76171880000004 433.5727539 L 313.7656251 433.574707 C 315.49023450000004 430.5834961 316.0800782 426.93603509999997 315.1191407 423.3520507 L 314.3984376 420.6611327 C 316.7773438 421.0581055 318.1289063 419.8193359 318.796875 418.8720703 L 318.796875 418.8720703 z" stroke-linecap="round" />
</g>
</g>
</g>
<g transform="matrix(1.9211538461538462 0 0 1.9211538461538462 639.9337201923075 659.4726216946043)" id="text-logo"  >
<g style=""  paint-order="stroke"   >
		<g transform="matrix(1 0 0 1 0 0)" id="text-logo-path-0"  >
<path style="stroke: none; stroke-width: 0; stroke-dasharray: none; stroke-linecap: butt; stroke-dashoffset: 0; stroke-linejoin: miter; stroke-miterlimit: 4; fill: rgb(139,83,255); fill-rule: nonzero; opacity: 1;"  paint-order="stroke"  transform=" translate(-200.35, 15.71)" d="M 13.71 0.64 C 19.55 0.64 25.21 -2.62 25.21 -8.92 C 25.21 -15.13 20.33 -17.71 15.04 -19.32 C 13.62 -19.78 12.56 -20.19 11.87 -20.52 C 10.9 -20.98 10.21 -21.48 10.21 -22.63 C 10.21 -23.97 11.91 -24.47 12.97 -24.47 C 15.46 -24.47 16.7 -23.37 17.76 -21.21 L 24.29 -25.02 C 22.03 -29.67 18.12 -32.06 12.97 -32.06 C 7.36 -32.06 2.58 -28.43 2.58 -22.63 C 2.58 -16.7 6.81 -14.35 11.91 -12.83 C 13.52 -12.37 14.67 -11.96 15.46 -11.64 C 16.51 -11.22 17.57 -10.67 17.57 -9.38 C 17.57 -7.68 15.27 -6.85 13.89 -6.85 C 10.9 -6.85 8.83 -8 7.68 -10.86 L 1.24 -7.08 C 3.31 -1.79 8.19 0.64 13.71 0.64 Z M 61.09 -31.46 L 61.09 -19.73 L 48.48 -19.73 L 48.48 -31.46 L 40.8 -31.46 L 40.8 0 L 48.48 0 L 48.48 -12.47 L 61.09 -12.47 L 61.09 0 L 68.72 0 L 68.72 -31.46 Z M 100.6 0.64 C 109.62 0.64 116.79 -6.67 116.79 -15.59 C 116.79 -24.66 109.57 -31.79 100.6 -31.79 C 91.59 -31.79 84.36 -24.52 84.36 -15.59 C 84.36 -6.72 91.63 0.64 100.6 0.64 Z M 92 -15.59 C 92 -20.29 95.96 -24.15 100.6 -24.15 C 105.34 -24.15 109.11 -20.29 109.11 -15.59 C 109.11 -10.9 105.34 -7.04 100.6 -7.04 C 95.91 -7.04 92 -10.95 92 -15.59 Z M 166.01 -31.46 L 161.14 -12.47 L 155.71 -31.46 L 147.8 -31.46 L 142.37 -12.47 L 137.54 -31.46 L 129.63 -31.46 L 138.14 0 L 146.28 0 L 151.75 -18.31 L 157.23 0 L 165.37 0 L 173.88 -31.46 Z M 200.79 0.64 C 206.63 0.64 212.29 -2.62 212.29 -8.92 C 212.29 -15.13 207.41 -17.71 202.12 -19.32 C 200.7 -19.78 199.64 -20.19 198.95 -20.52 C 197.98 -20.98 197.29 -21.48 197.29 -22.63 C 197.29 -23.97 199 -24.47 200.05 -24.47 C 202.54 -24.47 203.78 -23.37 204.84 -21.21 L 211.37 -25.02 C 209.12 -29.67 205.21 -32.06 200.05 -32.06 C 194.44 -32.06 189.66 -28.43 189.66 -22.63 C 189.66 -16.7 193.89 -14.35 199 -12.83 C 200.61 -12.37 201.76 -11.96 202.54 -11.64 C 203.6 -11.22 204.65 -10.67 204.65 -9.38 C 204.65 -7.68 202.35 -6.85 200.97 -6.85 C 197.98 -6.85 195.91 -8 194.76 -10.86 L 188.32 -7.08 C 190.39 -1.79 195.27 0.64 200.79 0.64 Z M 226.5 -15.59 C 226.5 -6.62 233.86 0.64 242.74 0.64 C 248.68 0.64 254.29 -2.76 257.05 -8 L 250.29 -11.68 C 248.91 -8.88 245.87 -7.04 242.74 -7.04 C 238.05 -7.04 234.14 -10.95 234.14 -15.59 C 234.14 -20.29 238.1 -24.15 242.74 -24.15 C 245.87 -24.15 248.72 -22.49 250.24 -19.73 L 256.96 -23.32 C 254.15 -28.57 248.68 -31.79 242.74 -31.79 C 233.82 -31.79 226.5 -24.61 226.5 -15.59 Z M 284.19 -10.12 L 289.85 0 L 298.59 0 L 292.01 -11.87 C 295.04 -13.85 296.79 -17.2 296.79 -20.79 C 296.79 -26.73 292.05 -31.46 286.17 -31.46 L 272.83 -31.46 L 272.83 0 L 280.51 0 L 280.51 -10.12 Z M 280.51 -17.39 L 280.51 -24.2 L 286.17 -24.2 C 288.1 -24.2 289.57 -22.72 289.57 -20.79 C 289.57 -18.95 288.01 -17.39 286.17 -17.39 Z M 313.44 -31.46 L 313.44 0 L 321.13 0 L 321.13 -31.46 Z M 361.01 -16.93 C 362.07 -18.54 362.62 -20.24 362.62 -22.17 C 362.62 -27.14 358.66 -31.46 353.65 -31.46 L 339.48 -31.46 L 339.48 0 L 347.16 0 L 347.16 -0.05 L 354.43 -0.05 C 359.86 -0.05 363.91 -4.74 363.91 -9.98 C 363.91 -12.6 362.85 -15.09 361.01 -16.93 Z M 347.16 -7.27 L 347.16 -12.74 L 354.43 -12.74 C 355.76 -12.74 356.68 -11.27 356.68 -10.03 C 356.68 -8.79 355.81 -7.27 354.43 -7.27 Z M 347.16 -19.6 L 347.16 -24.2 L 353.65 -24.2 C 354.89 -24.2 355.63 -23.05 355.63 -21.9 C 355.63 -20.75 354.89 -19.69 353.65 -19.69 Z M 387.18 -7.22 L 387.18 -12.47 L 398.13 -12.47 L 398.13 -19.69 L 387.18 -19.69 L 387.18 -24.2 L 399.23 -24.2 L 399.23 -31.46 L 379.5 -31.46 L 379.5 0 L 399.46 0 L 399.46 -7.22 Z" stroke-linecap="round" />
</g>
</g>
</g>
</svg>